<svg xmlns="http://www.w3.org/2000/svg" width="900" height="700">
<rect width="100%" height="100%" fill="white"/>
<text x="12.0" y="28.0" font-size="20" font-family="sans-serif" font-weight="bold" fill="#222">Confusion Matrices By Model</text>
<text x="12.0" y="76.0" font-size="14" font-family="sans-serif" font-weight="bold" fill="#222">rules_based</text>
<rect x="180.0" y="58.0" width="72.0" height="34.0" fill="#2a6f97"/>
<text x="187.0" y="73.0" font-size="12" font-family="sans-serif" font-weight="normal" fill="white">TN</text>
<text x="187.0" y="87.0" font-size="12" font-family="sans-serif" font-weight="normal" fill="white">142467</text>
<rect x="260.0" y="58.0" width="72.0" height="34.0" fill="#dfe9ef"/>
<text x="267.0" y="73.0" font-size="12" font-family="sans-serif" font-weight="normal" fill="white">FP</text>
<text x="267.0" y="87.0" font-size="12" font-family="sans-serif" font-weight="normal" fill="white">2</text>
<rect x="180.0" y="102.0" width="72.0" height="34.0" fill="#dfe9ef"/>
<text x="187.0" y="117.0" font-size="12" font-family="sans-serif" font-weight="normal" fill="white">FN</text>
<text x="187.0" y="131.0" font-size="12" font-family="sans-serif" font-weight="normal" fill="white">5119</text>
<rect x="260.0" y="102.0" width="72.0" height="34.0" fill="#dfe9ef"/>
<text x="267.0" y="117.0" font-size="12" font-family="sans-serif" font-weight="normal" fill="white">TP</text>
<text x="267.0" y="131.0" font-size="12" font-family="sans-serif" font-weight="normal" fill="white">47</text>
<text x="12.0" y="200.0" font-size="14" font-family="sans-serif" font-weight="bold" fill="#222">decision_tree</text>
<rect x="180.0" y="182.0" width="72.0" height="34.0" fill="#2a6f97"/>
<text x="187.0" y="197.0" font-size="12" font-family="sans-serif" font-weight="normal" fill="white">TN</text>
<text x="187.0" y="211.0" font-size="12" font-family="sans-serif" font-weight="normal" fill="white">112021</text>
<rect x="260.0" y="182.0" width="72.0" height="34.0" fill="#c5d7e2"/>
<text x="267.0" y="197.0" font-size="12" font-family="sans-serif" font-weight="normal" fill="white">FP</text>
<text x="267.0" y="211.0" font-size="12" font-family="sans-serif" font-weight="normal" fill="white">30448</text>
<rect x="180.0" y="226.0" width="72.0" height="34.0" fill="#dfe9ef"/>
<text x="187.0" y="241.0" font-size="12" font-family="sans-serif" font-weight="normal" fill="white">FN</text>
<text x="187.0" y="255.0" font-size="12" font-family="sans-serif" font-weight="normal" fill="white">1797</text>
<rect x="260.0" y="226.0" width="72.0" height="34.0" fill="#dfe9ef"/>
<text x="267.0" y="241.0" font-size="12" font-family="sans-serif" font-weight="normal" fill="white">TP</text>
<text x="267.0" y="255.0" font-size="12" font-family="sans-serif" font-weight="normal" fill="white">3369</text>
<text x="12.0" y="324.0" font-size="14" font-family="sans-serif" font-weight="bold" fill="#222">random_forest</text>
<rect x="180.0" y="306.0" width="72.0" height="34.0" fill="#2a6f97"/>
<text x="187.0" y="321.0" font-size="12" font-family="sans-serif" font-weight="normal" fill="white">TN</text>
<text x="187.0" y="335.0" font-size="12" font-family="sans-serif" font-weight="normal" fill="white">115589</text>
<rect x="260.0" y="306.0" width="72.0" height="34.0" fill="#cddde6"/>
<text x="267.0" y="321.0" font-size="12" font-family="sans-serif" font-weight="normal" fill="white">FP</text>
<text x="267.0" y="335.0" font-size="12" font-family="sans-serif" font-weight="normal" fill="white">26880</text>
<rect x="180.0" y="350.0" width="72.0" height="34.0" fill="#dfe9ef"/>
<text x="187.0" y="365.0" font-size="12" font-family="sans-serif" font-weight="normal" fill="white">FN</text>
<text x="187.0" y="379.0" font-size="12" font-family="sans-serif" font-weight="normal" fill="white">1816</text>
<rect x="260.0" y="350.0" width="72.0" height="34.0" fill="#dfe9ef"/>
<text x="267.0" y="365.0" font-size="12" font-family="sans-serif" font-weight="normal" fill="white">TP</text>
<text x="267.0" y="379.0" font-size="12" font-family="sans-serif" font-weight="normal" fill="white">3350</text>
<text x="12.0" y="448.0" font-size="14" font-family="sans-serif" font-weight="bold" fill="#222">neural_network</text>
<rect x="180.0" y="430.0" width="72.0" height="34.0" fill="#2a6f97"/>
<text x="187.0" y="445.0" font-size="12" font-family="sans-serif" font-weight="normal" fill="white">TN</text>
<text x="187.0" y="459.0" font-size="12" font-family="sans-serif" font-weight="normal" fill="white">114494</text>
<rect x="260.0" y="430.0" width="72.0" height="34.0" fill="#cadbe5"/>
<text x="267.0" y="445.0" font-size="12" font-family="sans-serif" font-weight="normal" fill="white">FP</text>
<text x="267.0" y="459.0" font-size="12" font-family="sans-serif" font-weight="normal" fill="white">27975</text>
<rect x="180.0" y="474.0" width="72.0" height="34.0" fill="#dfe9ef"/>
<text x="187.0" y="489.0" font-size="12" font-family="sans-serif" font-weight="normal" fill="white">FN</text>
<text x="187.0" y="503.0" font-size="12" font-family="sans-serif" font-weight="normal" fill="white">2043</text>
<rect x="260.0" y="474.0" width="72.0" height="34.0" fill="#dfe9ef"/>
<text x="267.0" y="489.0" font-size="12" font-family="sans-serif" font-weight="normal" fill="white">TP</text>
<text x="267.0" y="503.0" font-size="12" font-family="sans-serif" font-weight="normal" fill="white">3123</text>
<text x="12.0" y="572.0" font-size="14" font-family="sans-serif" font-weight="bold" fill="#222">random_contender</text>
<rect x="180.0" y="554.0" width="72.0" height="34.0" fill="#2a6f97"/>
<text x="187.0" y="569.0" font-size="12" font-family="sans-serif" font-weight="normal" fill="white">TN</text>
<text x="187.0" y="583.0" font-size="12" font-family="sans-serif" font-weight="normal" fill="white">142469</text>
<rect x="260.0" y="554.0" width="72.0" height="34.0" fill="#dfe9ef"/>
<text x="267.0" y="569.0" font-size="12" font-family="sans-serif" font-weight="normal" fill="white">FP</text>
<text x="267.0" y="583.0" font-size="12" font-family="sans-serif" font-weight="normal" fill="white">0</text>
<rect x="180.0" y="598.0" width="72.0" height="34.0" fill="#dfe9ef"/>
<text x="187.0" y="613.0" font-size="12" font-family="sans-serif" font-weight="normal" fill="white">FN</text>
<text x="187.0" y="627.0" font-size="12" font-family="sans-serif" font-weight="normal" fill="white">5166</text>
<rect x="260.0" y="598.0" width="72.0" height="34.0" fill="#dfe9ef"/>
<text x="267.0" y="613.0" font-size="12" font-family="sans-serif" font-weight="normal" fill="white">TP</text>
<text x="267.0" y="627.0" font-size="12" font-family="sans-serif" font-weight="normal" fill="white">0</text>
</svg>