<svg xmlns="http://www.w3.org/2000/svg" width="900" height="760">
<rect width="100%" height="100%" fill="white"/>
<text x="8" y="44" font-size="12" font-family="sans-serif">card1</text>
<rect x="380" y="30" width="213" height="16" fill="#2a6f97"/>
<text x="598" y="43" font-size="12" font-family="monospace">0.508</text>
<text x="8" y="68" font-size="12" font-family="sans-serif">C11</text>
<rect x="380" y="54" width="203" height="16" fill="#2a6f97"/>
<text x="588" y="67" font-size="12" font-family="monospace">0.484</text>
<text x="8" y="92" font-size="12" font-family="sans-serif">C12</text>
<rect x="380" y="78" width="161" height="16" fill="#2a6f97"/>
<text x="546" y="91" font-size="12" font-family="monospace">0.385</text>
<text x="8" y="116" font-size="12" font-family="sans-serif">R_emaildomain</text>
<rect x="380" y="102" width="161" height="16" fill="#2a6f97"/>
<text x="546" y="115" font-size="12" font-family="monospace">0.385</text>
<text x="8" y="140" font-size="12" font-family="sans-serif">card2</text>
<rect x="380" y="126" width="160" height="16" fill="#2a6f97"/>
<text x="545" y="139" font-size="12" font-family="monospace">0.382</text>
<text x="8" y="164" font-size="12" font-family="sans-serif">C14</text>
<rect x="380" y="150" width="154" height="16" fill="#2a6f97"/>
<text x="539" y="163" font-size="12" font-family="monospace">0.367</text>
<text x="8" y="188" font-size="12" font-family="sans-serif">V168</text>
<rect x="380" y="174" width="149" height="16" fill="#2a6f97"/>
<text x="534" y="187" font-size="12" font-family="monospace">0.356</text>
<text x="8" y="212" font-size="12" font-family="sans-serif">DeviceInfo</text>
<rect x="380" y="198" width="149" height="16" fill="#2a6f97"/>
<text x="534" y="211" font-size="12" font-family="monospace">0.356</text>
<text x="8" y="236" font-size="12" font-family="sans-serif">id_13</text>
<rect x="380" y="222" width="148" height="16" fill="#2a6f97"/>
<text x="533" y="235" font-size="12" font-family="monospace">0.355</text>
<text x="8" y="260" font-size="12" font-family="sans-serif">id_17</text>
<rect x="380" y="246" width="146" height="16" fill="#2a6f97"/>
<text x="531" y="259" font-size="12" font-family="monospace">0.349</text>
<text x="8" y="284" font-size="12" font-family="sans-serif">V218</text>
<rect x="380" y="270" width="143" height="16" fill="#2a6f97"/>
<text x="528" y="283" font-size="12" font-family="monospace">0.342</text>
<text x="8" y="308" font-size="12" font-family="sans-serif">V219</text>
<rect x="380" y="294" width="142" height="16" fill="#2a6f97"/>
<text x="527" y="307" font-size="12" font-family="monospace">0.339</text>
<text x="8" y="332" font-size="12" font-family="sans-serif">C8</text>
<rect x="380" y="318" width="140" height="16" fill="#2a6f97"/>
<text x="525" y="331" font-size="12" font-family="monospace">0.335</text>
<text x="8" y="356" font-size="12" font-family="sans-serif">id_19</text>
<rect x="380" y="342" width="138" height="16" fill="#2a6f97"/>
<text x="523" y="355" font-size="12" font-family="monospace">0.330</text>
<text x="8" y="380" font-size="12" font-family="sans-serif">V264</text>
<rect x="380" y="366" width="136" height="16" fill="#2a6f97"/>
<text x="521" y="379" font-size="12" font-family="monospace">0.325</text>
<text x="8" y="404" font-size="12" font-family="sans-serif">D5</text>
<rect x="380" y="390" width="135" height="16" fill="#2a6f97"/>
<text x="520" y="403" font-size="12" font-family="monospace">0.323</text>
<text x="8" y="428" font-size="12" font-family="sans-serif">addr2</text>
<rect x="380" y="414" width="134" height="16" fill="#2a6f97"/>
<text x="519" y="427" font-size="12" font-family="monospace">0.319</text>
<text x="8" y="452" font-size="12" font-family="sans-serif">V258</text>
<rect x="380" y="438" width="133" height="16" fill="#2a6f97"/>
<text x="518" y="451" font-size="12" font-family="monospace">0.317</text>
<text x="8" y="476" font-size="12" font-family="sans-serif">C4</text>
<rect x="380" y="462" width="131" height="16" fill="#2a6f97"/>
<text x="516" y="475" font-size="12" font-family="monospace">0.314</text>
<text x="8" y="500" font-size="12" font-family="sans-serif">card3</text>
<rect x="380" y="486" width="130" height="16" fill="#2a6f97"/>
<text x="515" y="499" font-size="12" font-family="monospace">0.311</text>
<text x="8" y="524" font-size="12" font-family="sans-serif">V257</text>
<rect x="380" y="510" width="129" height="16" fill="#2a6f97"/>
<text x="514" y="523" font-size="12" font-family="monospace">0.308</text>
<text x="8" y="548" font-size="12" font-family="sans-serif">V217</text>
<rect x="380" y="534" width="128" height="16" fill="#2a6f97"/>
<text x="513" y="547" font-size="12" font-family="monospace">0.305</text>
<text x="8" y="572" font-size="12" font-family="sans-serif">V178</text>
<rect x="380" y="558" width="128" height="16" fill="#2a6f97"/>
<text x="513" y="571" font-size="12" font-family="monospace">0.305</text>
<text x="8" y="596" font-size="12" font-family="sans-serif">id_20</text>
<rect x="380" y="582" width="127" height="16" fill="#2a6f97"/>
<text x="512" y="595" font-size="12" font-family="monospace">0.304</text>
<text x="8" y="620" font-size="12" font-family="sans-serif">V232</text>
<rect x="380" y="606" width="126" height="16" fill="#2a6f97"/>
<text x="511" y="619" font-size="12" font-family="monospace">0.302</text>
<text x="8" y="644" font-size="12" font-family="sans-serif">ProductCD</text>
<rect x="380" y="630" width="125" height="16" fill="#2a6f97"/>
<text x="510" y="643" font-size="12" font-family="monospace">0.300</text>
<text x="8" y="668" font-size="12" font-family="sans-serif">V265</text>
<rect x="380" y="654" width="125" height="16" fill="#2a6f97"/>
<text x="510" y="667" font-size="12" font-family="monospace">0.299</text>
<text x="8" y="692" font-size="12" font-family="sans-serif">V274</text>
<rect x="380" y="678" width="120" height="16" fill="#2a6f97"/>
<text x="505" y="691" font-size="12" font-family="monospace">0.288</text>
<text x="8" y="716" font-size="12" font-family="sans-serif">id_15</text>
<rect x="380" y="702" width="118" height="16" fill="#2a6f97"/>
<text x="503" y="715" font-size="12" font-family="monospace">0.283</text>
<text x="8" y="740" font-size="12" font-family="sans-serif">D2</text>
<rect x="380" y="726" width="118" height="16" fill="#2a6f97"/>
<text x="503" y="739" font-size="12" font-family="monospace">0.281</text>
</svg>