<svg xmlns="http://www.w3.org/2000/svg" width="900" height="520">
<rect width="100%" height="100%" fill="white"/>
<text x="8" y="44" font-size="12" font-family="sans-serif">R_emaildomain</text>
<rect x="360" y="30" width="135" height="16" fill="#1f77b4"/>
<text x="500" y="43" font-size="12" font-family="monospace">0.322</text>
<text x="8" y="68" font-size="12" font-family="sans-serif">id_02</text>
<rect x="360" y="54" width="132" height="16" fill="#1f77b4"/>
<text x="497" y="67" font-size="12" font-family="monospace">0.316</text>
<text x="8" y="92" font-size="12" font-family="sans-serif">id_37</text>
<rect x="360" y="78" width="132" height="16" fill="#1f77b4"/>
<text x="497" y="91" font-size="12" font-family="monospace">0.315</text>
<text x="8" y="116" font-size="12" font-family="sans-serif">id_36</text>
<rect x="360" y="102" width="132" height="16" fill="#1f77b4"/>
<text x="497" y="115" font-size="12" font-family="monospace">0.315</text>
<text x="8" y="140" font-size="12" font-family="sans-serif">id_38</text>
<rect x="360" y="126" width="132" height="16" fill="#1f77b4"/>
<text x="497" y="139" font-size="12" font-family="monospace">0.315</text>
<text x="8" y="164" font-size="12" font-family="sans-serif">id_15</text>
<rect x="360" y="150" width="132" height="16" fill="#1f77b4"/>
<text x="497" y="163" font-size="12" font-family="monospace">0.315</text>
<text x="8" y="188" font-size="12" font-family="sans-serif">id_35</text>
<rect x="360" y="174" width="132" height="16" fill="#1f77b4"/>
<text x="497" y="187" font-size="12" font-family="monospace">0.315</text>
<text x="8" y="212" font-size="12" font-family="sans-serif">id_28</text>
<rect x="360" y="198" width="132" height="16" fill="#1f77b4"/>
<text x="497" y="211" font-size="12" font-family="monospace">0.315</text>
<text x="8" y="236" font-size="12" font-family="sans-serif">id_11</text>
<rect x="360" y="222" width="132" height="16" fill="#1f77b4"/>
<text x="497" y="235" font-size="12" font-family="monospace">0.315</text>
<text x="8" y="260" font-size="12" font-family="sans-serif">id_29</text>
<rect x="360" y="246" width="132" height="16" fill="#1f77b4"/>
<text x="497" y="259" font-size="12" font-family="monospace">0.315</text>
<text x="8" y="284" font-size="12" font-family="sans-serif">DeviceType</text>
<rect x="360" y="270" width="132" height="16" fill="#1f77b4"/>
<text x="497" y="283" font-size="12" font-family="monospace">0.315</text>
<text x="8" y="308" font-size="12" font-family="sans-serif">id_01</text>
<rect x="360" y="294" width="132" height="16" fill="#1f77b4"/>
<text x="497" y="307" font-size="12" font-family="monospace">0.315</text>
<text x="8" y="332" font-size="12" font-family="sans-serif">id_12</text>
<rect x="360" y="318" width="132" height="16" fill="#1f77b4"/>
<text x="497" y="331" font-size="12" font-family="monospace">0.315</text>
<text x="8" y="356" font-size="12" font-family="sans-serif">id_31</text>
<rect x="360" y="342" width="131" height="16" fill="#1f77b4"/>
<text x="496" y="355" font-size="12" font-family="monospace">0.314</text>
<text x="8" y="380" font-size="12" font-family="sans-serif">id_05</text>
<rect x="360" y="366" width="130" height="16" fill="#1f77b4"/>
<text x="495" y="379" font-size="12" font-family="monospace">0.311</text>
<text x="8" y="404" font-size="12" font-family="sans-serif">id_06</text>
<rect x="360" y="390" width="130" height="16" fill="#1f77b4"/>
<text x="495" y="403" font-size="12" font-family="monospace">0.311</text>
<text x="8" y="428" font-size="12" font-family="sans-serif">V175</text>
<rect x="360" y="414" width="130" height="16" fill="#1f77b4"/>
<text x="495" y="427" font-size="12" font-family="monospace">0.310</text>
<text x="8" y="452" font-size="12" font-family="sans-serif">V195</text>
<rect x="360" y="438" width="130" height="16" fill="#1f77b4"/>
<text x="495" y="451" font-size="12" font-family="monospace">0.310</text>
<text x="8" y="476" font-size="12" font-family="sans-serif">V170</text>
<rect x="360" y="462" width="130" height="16" fill="#1f77b4"/>
<text x="495" y="475" font-size="12" font-family="monospace">0.310</text>
<text x="8" y="500" font-size="12" font-family="sans-serif">V171</text>
<rect x="360" y="486" width="130" height="16" fill="#1f77b4"/>
<text x="495" y="499" font-size="12" font-family="monospace">0.310</text>
</svg>