<svg xmlns="http://www.w3.org/2000/svg" width="900" height="520">
<rect width="100%" height="100%" fill="white"/>
<text x="8" y="44" font-size="12" font-family="sans-serif">card1</text>
<rect x="360" y="30" width="287" height="16" fill="#1f77b4"/>
<text x="652" y="43" font-size="12" font-family="monospace">0.685</text>
<text x="8" y="68" font-size="12" font-family="sans-serif">card2</text>
<rect x="360" y="54" width="207" height="16" fill="#1f77b4"/>
<text x="572" y="67" font-size="12" font-family="monospace">0.495</text>
<text x="8" y="92" font-size="12" font-family="sans-serif">D5</text>
<rect x="360" y="78" width="206" height="16" fill="#1f77b4"/>
<text x="571" y="91" font-size="12" font-family="monospace">0.491</text>
<text x="8" y="116" font-size="12" font-family="sans-serif">V258</text>
<rect x="360" y="102" width="206" height="16" fill="#1f77b4"/>
<text x="571" y="115" font-size="12" font-family="monospace">0.491</text>
<text x="8" y="140" font-size="12" font-family="sans-serif">V218</text>
<rect x="360" y="126" width="199" height="16" fill="#1f77b4"/>
<text x="564" y="139" font-size="12" font-family="monospace">0.475</text>
<text x="8" y="164" font-size="12" font-family="sans-serif">V219</text>
<rect x="360" y="150" width="196" height="16" fill="#1f77b4"/>
<text x="561" y="163" font-size="12" font-family="monospace">0.469</text>
<text x="8" y="188" font-size="12" font-family="sans-serif">V264</text>
<rect x="360" y="174" width="193" height="16" fill="#1f77b4"/>
<text x="558" y="187" font-size="12" font-family="monospace">0.461</text>
<text x="8" y="212" font-size="12" font-family="sans-serif">V257</text>
<rect x="360" y="198" width="191" height="16" fill="#1f77b4"/>
<text x="556" y="211" font-size="12" font-family="monospace">0.456</text>
<text x="8" y="236" font-size="12" font-family="sans-serif">V265</text>
<rect x="360" y="222" width="190" height="16" fill="#1f77b4"/>
<text x="555" y="235" font-size="12" font-family="monospace">0.453</text>
<text x="8" y="260" font-size="12" font-family="sans-serif">V217</text>
<rect x="360" y="246" width="181" height="16" fill="#1f77b4"/>
<text x="546" y="259" font-size="12" font-family="monospace">0.433</text>
<text x="8" y="284" font-size="12" font-family="sans-serif">V232</text>
<rect x="360" y="270" width="178" height="16" fill="#1f77b4"/>
<text x="543" y="283" font-size="12" font-family="monospace">0.425</text>
<text x="8" y="308" font-size="12" font-family="sans-serif">V229</text>
<rect x="360" y="294" width="178" height="16" fill="#1f77b4"/>
<text x="543" y="307" font-size="12" font-family="monospace">0.425</text>
<text x="8" y="332" font-size="12" font-family="sans-serif">V274</text>
<rect x="360" y="318" width="176" height="16" fill="#1f77b4"/>
<text x="541" y="331" font-size="12" font-family="monospace">0.421</text>
<text x="8" y="356" font-size="12" font-family="sans-serif">V263</text>
<rect x="360" y="342" width="175" height="16" fill="#1f77b4"/>
<text x="540" y="355" font-size="12" font-family="monospace">0.419</text>
<text x="8" y="380" font-size="12" font-family="sans-serif">V246</text>
<rect x="360" y="366" width="173" height="16" fill="#1f77b4"/>
<text x="538" y="379" font-size="12" font-family="monospace">0.414</text>
<text x="8" y="404" font-size="12" font-family="sans-serif">V233</text>
<rect x="360" y="390" width="171" height="16" fill="#1f77b4"/>
<text x="536" y="403" font-size="12" font-family="monospace">0.408</text>
<text x="8" y="428" font-size="12" font-family="sans-serif">D2</text>
<rect x="360" y="414" width="171" height="16" fill="#1f77b4"/>
<text x="536" y="427" font-size="12" font-family="monospace">0.408</text>
<text x="8" y="452" font-size="12" font-family="sans-serif">V230</text>
<rect x="360" y="438" width="170" height="16" fill="#1f77b4"/>
<text x="535" y="451" font-size="12" font-family="monospace">0.407</text>
<text x="8" y="476" font-size="12" font-family="sans-serif">V52</text>
<rect x="360" y="462" width="170" height="16" fill="#1f77b4"/>
<text x="535" y="475" font-size="12" font-family="monospace">0.405</text>
<text x="8" y="500" font-size="12" font-family="sans-serif">V275</text>
<rect x="360" y="486" width="169" height="16" fill="#1f77b4"/>
<text x="534" y="499" font-size="12" font-family="monospace">0.404</text>
</svg>